<svg width="48" height="48" viewBox="0 0 48 48" fill="none" xmlns="http://www.w3.org/2000/svg">
<rect x="0.5" y="0.5" width="47" height="47" rx="23.5" fill="#FAFAFA"/>
<rect x="0.5" y="0.5" width="47" height="47" rx="23.5" stroke="#E8E8E8"/>
<mask id="mask0_2399_7580" style="mask-type:alpha" maskUnits="userSpaceOnUse" x="12" y="12" width="24" height="24">
<rect x="12" y="12" width="24" height="24" fill="#D9D9D9"/>
</mask>
<g mask="url(#mask0_2399_7580)">
<path d="M24 34C22.6167 34 21.3167 33.7375 20.1 33.2125C18.8833 32.6875 17.825 31.975 16.925 31.075C16.025 30.175 15.3125 29.1167 14.7875 27.9C14.2625 26.6833 14 25.3833 14 24C14 22.6167 14.2625 21.3167 14.7875 20.1C15.3125 18.8833 16.025 17.825 16.925 16.925C17.825 16.025 18.8833 15.3125 20.1 14.7875C21.3167 14.2625 22.6167 14 24 14C25.3833 14 26.6833 14.2625 27.9 14.7875C29.1167 15.3125 30.175 16.025 31.075 16.925C31.975 17.825 32.6875 18.8833 33.2125 20.1C33.7375 21.3167 34 22.6167 34 24C34 25.3833 33.7375 26.6833 33.2125 27.9C32.6875 29.1167 31.975 30.175 31.075 31.075C30.175 31.975 29.1167 32.6875 27.9 33.2125C26.6833 33.7375 25.3833 34 24 34ZM24 29.5C24.75 28.75 25.4167 27.975 26 27.175C26.5 26.4917 26.9583 25.7417 27.375 24.925C27.7917 24.1083 28 23.3 28 22.5C28 21.4 27.6083 20.4583 26.825 19.675C26.0417 18.8917 25.1 18.5 24 18.5C22.9 18.5 21.9583 18.8917 21.175 19.675C20.3917 20.4583 20 21.4 20 22.5C20 23.3 20.2083 24.1083 20.625 24.925C21.0417 25.7417 21.5 26.4917 22 27.175C22.5833 27.975 23.25 28.75 24 29.5ZM24 24C23.5833 24 23.2292 23.8542 22.9375 23.5625C22.6458 23.2708 22.5 22.9167 22.5 22.5C22.5 22.0833 22.6458 21.7292 22.9375 21.4375C23.2292 21.1458 23.5833 21 24 21C24.4167 21 24.7708 21.1458 25.0625 21.4375C25.3542 21.7292 25.5 22.0833 25.5 22.5C25.5 22.9167 25.3542 23.2708 25.0625 23.5625C24.7708 23.8542 24.4167 24 24 24Z" fill="#2D2D2D"/>
</g>
</svg>
